<svg width="24" height="24" viewBox="0 0 24 24" fill="none" xmlns="http://www.w3.org/2000/svg">
<path d="M7.20016 2.39998C7.09415 2.39848 6.9889 2.41807 6.89053 2.4576C6.79216 2.49713 6.70262 2.55582 6.62712 2.63025C6.55163 2.70469 6.49168 2.79339 6.45076 2.89119C6.40984 2.989 6.38877 3.09396 6.38877 3.19998C6.38877 3.306 6.40984 3.41097 6.45076 3.50877C6.49168 3.60658 6.55163 3.69527 6.62712 3.76971C6.70262 3.84415 6.79216 3.90283 6.89053 3.94237C6.9889 3.9819 7.09415 4.00148 7.20016 3.99998H16.8002C16.9062 4.00148 17.0114 3.9819 17.1098 3.94237C17.2082 3.90283 17.2977 3.84415 17.3732 3.76971C17.4487 3.69527 17.5087 3.60658 17.5496 3.50877C17.5905 3.41097 17.6116 3.306 17.6116 3.19998C17.6116 3.09396 17.5905 2.989 17.5496 2.89119C17.5087 2.79339 17.4487 2.70469 17.3732 2.63025C17.2977 2.55582 17.2082 2.49713 17.1098 2.4576C17.0114 2.41807 16.9062 2.39848 16.8002 2.39998H7.20016ZM4.80016 5.59998C4.69415 5.59848 4.5889 5.61807 4.49053 5.6576C4.39215 5.69713 4.30262 5.75582 4.22712 5.83025C4.15163 5.90469 4.09168 5.99339 4.05076 6.09119C4.00984 6.189 3.98877 6.29396 3.98877 6.39998C3.98877 6.506 4.00984 6.61097 4.05076 6.70877C4.09168 6.80658 4.15163 6.89528 4.22712 6.96971C4.30262 7.04415 4.39215 7.10284 4.49053 7.14237C4.5889 7.1819 4.69415 7.20148 4.80016 7.19998V21.6H9.60016V17.6H14.4002V21.6H19.2002V7.19998C19.3062 7.20148 19.4114 7.1819 19.5098 7.14237C19.6082 7.10284 19.6977 7.04415 19.7732 6.96971C19.8487 6.89528 19.9087 6.80658 19.9496 6.70877C19.9905 6.61097 20.0116 6.506 20.0116 6.39998C20.0116 6.29396 19.9905 6.189 19.9496 6.09119C19.9087 5.99339 19.8487 5.90469 19.7732 5.83025C19.6977 5.75582 19.6082 5.69713 19.5098 5.6576C19.4114 5.61807 19.3062 5.59848 19.2002 5.59998H4.80016ZM6.40016 7.99998H8.00016V9.59998H6.40016V7.99998ZM9.60016 7.99998H11.2002V9.59998H9.60016V7.99998ZM12.8002 7.99998H14.4002V9.59998H12.8002V7.99998ZM16.0002 7.99998H17.6002V9.59998H16.0002V7.99998ZM6.40016 11.2H8.00016V12.8H6.40016V11.2ZM9.60016 11.2H11.2002V12.8H9.60016V11.2ZM12.8002 11.2H14.4002V12.8H12.8002V11.2ZM16.0002 11.2H17.6002V12.8H16.0002V11.2ZM6.40016 14.4H8.00016V16H6.40016V14.4ZM9.60016 14.4H11.2002V16H9.60016V14.4ZM12.8002 14.4H14.4002V16H12.8002V14.4ZM16.0002 14.4H17.6002V16H16.0002V14.4ZM6.40016 17.6H8.00016V19.2H6.40016V17.6ZM16.0002 17.6H17.6002V19.2H16.0002V17.6Z" fill="white"/>
</svg>
