<svg width="24" height="24" viewBox="0 0 24 24" fill="none" xmlns="http://www.w3.org/2000/svg">
<path d="M12 4.80005C9.4544 4.80005 8.4 6.43285 8.4 8.40005C8.4 9.06245 8.71719 9.72817 8.71719 9.72817C8.58999 9.80177 8.37845 10.0357 8.43125 10.4485C8.52965 11.2181 8.86376 11.4122 9.07656 11.4282C9.15736 12.1466 9.9304 13.0664 10.2 13.2V14.2735C9.6 16.0735 4.8 15.8 4.8 20H19.2C19.2 15.8 14.4 16.0735 13.8 14.2735V13.2C14.0704 13.0664 14.8426 12.1466 14.9234 11.4282C15.1362 11.4122 15.4704 11.2181 15.5688 10.4485C15.6215 10.0349 15.41 9.80177 15.2828 9.72817C15.2828 9.72817 15.6 9.12725 15.6 8.40005C15.6 6.94325 15.028 5.70005 13.8 5.70005C13.8 5.70005 13.3736 4.80005 12 4.80005ZM18 6.39849C17.5904 6.39849 17.2419 6.47257 16.9219 6.57817C17.0971 7.12137 17.2 7.72725 17.2 8.40005C17.2 8.82565 17.1332 9.21584 17.0484 9.54224C17.1644 9.88544 17.2043 10.2628 17.1547 10.65C17.0419 11.5308 16.6999 12.1295 16.2703 12.5063C16.1455 12.8087 15.9746 13.0952 15.7906 13.3688C16.0178 13.8352 16.3504 14.2504 16.5 14.3344V14.3438C18.1296 15.1078 20.8 16.392 20.8 20H24C24 16.0336 20 16.6032 19.5 14.9032V14.3329C19.7248 14.2065 20.3687 13.3378 20.4359 12.6594C20.6127 12.6442 20.8918 12.4616 20.9734 11.7344C21.0174 11.344 20.8415 11.1243 20.7359 11.0547C20.7359 11.0547 21 10.4856 21 9.80005C21 8.42405 20.5232 7.25005 19.5 7.25005C19.5 7.25005 19.1448 6.39849 18 6.39849ZM6 6.40005C4.8552 6.40005 4.5 7.25005 4.5 7.25005C3.4768 7.25005 3 8.42561 3 9.80161C3 10.488 3.26406 11.0547 3.26406 11.0547C3.15766 11.1235 2.98256 11.344 3.02656 11.7344C3.10816 12.4616 3.38726 12.6458 3.56406 12.661C3.63126 13.3394 4.2752 14.208 4.5 14.3344V14.9032C4 16.6024 0 16.0336 0 20H3.2C3.2 16.392 5.8704 15.1086 7.5 14.3438V14.3329C7.6496 14.2489 7.98217 13.836 8.20938 13.3688C8.02538 13.0952 7.85449 12.8071 7.72969 12.5047C7.30009 12.1287 6.95731 11.53 6.84531 10.65C6.79491 10.258 6.83629 9.87457 6.95469 9.52817C6.86829 9.19937 6.8 8.80885 6.8 8.40005C6.8 7.73845 6.89366 7.13025 7.06406 6.57505C6.74806 6.47185 6.404 6.40005 6 6.40005Z" fill="white"/>
</svg>
