<svg width="81" height="38" viewBox="0 0 81 38" fill="none" xmlns="http://www.w3.org/2000/svg">
<g clip-path="url(#clip0)">
<path d="M19.8511 18.2233C19.9609 18.3331 20.1095 18.4322 20.2727 18.523C20.552 18.622 20.7902 18.7208 20.9876 18.8192C21.2715 18.9616 21.4673 19.0682 21.5738 19.1389L20.8278 21.2705C20.6679 21.164 20.4373 21.0487 20.135 20.9246C19.8327 20.8006 19.4907 20.6756 19.1089 20.5516C18.7272 20.4276 18.3096 20.3249 17.8571 20.2454C17.4046 20.165 16.9463 20.1253 16.4851 20.1253C15.5084 20.1253 14.6287 20.2939 13.8477 20.6311C13.0658 20.9682 12.4002 21.4575 11.8498 22.096C11.2995 22.7355 10.877 23.5126 10.5844 24.4273C10.2918 25.3419 10.1446 26.368 10.1446 27.5045C10.1446 28.6062 10.2734 29.609 10.5311 30.5159C10.7889 31.4218 11.1745 32.1989 11.69 32.8471C12.2045 33.4953 12.8488 33.9972 13.622 34.3528C14.3942 34.7084 15.2963 34.8857 16.3262 34.8857C17.516 34.8857 18.5024 34.7617 19.2833 34.5127C20.0652 34.2636 20.6514 34.0418 21.0419 33.846L21.7085 35.9777C21.5835 36.0668 21.3616 36.1772 21.0419 36.311C20.7222 36.4447 20.323 36.5735 19.8424 36.6976C19.3618 36.8216 18.8037 36.9282 18.1633 37.0173C17.5248 37.1064 16.832 37.151 16.0859 37.151C14.7895 37.151 13.6084 36.9378 12.5426 36.5115C11.4768 36.0852 10.5622 35.4632 9.79768 34.6464C9.03418 33.8296 8.44314 32.8209 8.02554 31.6224C7.60794 30.4229 7.39962 29.0509 7.39962 27.5055C7.39962 25.9601 7.63507 24.5881 8.10596 23.3886C8.37715 22.6978 8.70266 22.0706 9.08266 21.5068C9.01624 21.5076 8.94938 21.5079 8.8821 21.5079C7.58569 21.5079 6.40459 21.2948 5.33879 20.8684C4.27298 20.4421 3.35736 19.8201 2.59386 19.0033C1.83036 18.1865 1.23932 17.1779 0.821718 15.9793C0.404117 14.7808 0.195801 13.4078 0.195801 11.8624C0.195801 10.317 0.431246 8.94501 0.902138 7.7455C1.37303 6.54598 2.00767 5.53831 2.80702 4.72152C3.60637 3.90473 4.53943 3.28269 5.60524 2.85637C6.67104 2.43004 7.80757 2.21688 9.01581 2.21688C9.77931 2.21688 10.4682 2.27017 11.0806 2.37675C11.6939 2.48334 12.2268 2.60736 12.6793 2.74979C13.1327 2.89222 13.5009 3.03368 13.7848 3.17611C14.0687 3.31854 14.2644 3.42512 14.371 3.49585L13.6249 5.62746C13.465 5.52087 13.2344 5.40557 12.9321 5.28058C12.6298 5.15656 12.2878 5.03157 11.9061 4.90755C11.5243 4.78353 11.1067 4.68083 10.6542 4.60138C10.2018 4.52096 9.74346 4.48123 9.28226 4.48123C8.30559 4.48123 7.42582 4.64982 6.64488 4.987C5.86297 5.32515 5.19732 5.81349 4.64698 6.452C4.09664 7.09148 3.67419 7.86855 3.38158 8.7832C3.088 9.69785 2.9417 10.7239 2.9417 11.8605C2.9417 12.9621 3.07056 13.9649 3.32829 14.8718C3.58602 15.7778 3.97165 16.5548 4.48711 17.203C5.00257 17.8512 5.64593 18.3531 6.41912 18.7087C7.19231 19.0643 8.0934 19.2416 9.12335 19.2416C10.2743 19.2416 11.2431 19.1428 12.0208 18.8627C12.2746 18.729 12.537 18.6079 12.8081 18.4994C13.8739 18.0731 15.0104 17.86 16.2187 17.86C16.4891 17.86 16.7501 17.8667 17.0017 17.88C16.9635 17.6012 16.9444 17.3016 16.9444 16.9812V0.487379L19.4025 0.0639648V16.5839C19.4025 16.9889 19.4374 17.3242 19.5081 17.5887C19.5779 17.8532 19.6932 18.0644 19.8511 18.2233Z" fill="#4591C1"/>
<path d="M26.2023 5.12943C25.7586 5.12943 25.3807 4.98313 25.0697 4.68955C24.7587 4.39597 24.6036 4.00162 24.6036 3.5036C24.6036 3.00655 24.7587 2.61123 25.0697 2.31765C25.3807 2.02504 25.7576 1.87777 26.2023 1.87777C26.6461 1.87777 27.024 2.02407 27.335 2.31765C27.646 2.61123 27.801 3.00655 27.801 3.5036C27.801 4.00065 27.645 4.39597 27.335 4.68955C27.023 4.98313 26.6461 5.12943 26.2023 5.12943Z" fill="#4591C1"/>
<path d="M27.4173 21.5612L27.4542 7.63407H24.9757L25.0181 21.1057L24.9612 33.4565C24.9612 34.7704 25.278 35.7383 25.9117 36.3604C26.5453 36.9824 27.6189 37.3109 29.1333 37.3467L29.4753 35.2684C29.0877 35.2151 28.7622 35.1492 28.4986 35.0688C28.2351 34.9894 28.0229 34.8692 27.865 34.7093C27.707 34.5495 27.5917 34.3363 27.522 34.0699C27.4513 33.8034 27.4164 33.4662 27.4164 33.0574L27.4173 21.5612Z" fill="#4591C1"/>
<path d="M34.0776 7.60016C33.1359 7.76003 32.3811 7.91118 31.8123 8.05264V21.5079H34.2898V9.81122C34.379 9.79281 34.5253 9.76664 34.7297 9.73079C34.9342 9.69591 35.1648 9.66491 35.4225 9.63778C35.6802 9.61065 35.9515 9.58934 36.2354 9.57093C36.5203 9.55349 36.7954 9.54476 37.0619 9.54476C37.7188 9.54476 38.2701 9.62906 38.7139 9.79765C39.1576 9.96721 39.5132 10.2375 39.7797 10.6106C40.0461 10.9826 40.236 11.4719 40.3523 12.0756C40.4676 12.6792 40.5257 13.4078 40.5257 14.2605V21.5079H43.0042V13.7276C43.0042 12.7867 42.9151 11.9254 42.7378 11.1435C42.5595 10.3625 42.2533 9.69204 41.8183 9.13201C41.3832 8.57295 40.8009 8.13791 40.0733 7.82688C39.3446 7.51683 38.43 7.36084 37.3283 7.36084C36.1027 7.36084 35.0185 7.44029 34.0776 7.60016Z" fill="#4591C1"/>
<path d="M48.5358 5.14784C48.092 5.14784 47.7141 5.00154 47.4031 4.70796C47.0921 4.41535 46.937 4.02003 46.937 3.52201C46.937 3.02496 47.0921 2.62964 47.4031 2.33606C47.7141 2.04248 48.091 1.89617 48.5358 1.89617C48.9795 1.89617 49.3574 2.04248 49.6684 2.33606C49.9794 2.62964 50.1345 3.02496 50.1345 3.52201C50.1345 4.01906 49.9785 4.41438 49.6684 4.70796C49.3574 5.00154 48.9805 5.14784 48.5358 5.14784Z" fill="#4591C1"/>
<path d="M49.7886 21.5079H47.311V7.65248H49.7886V21.5079Z" fill="#4591C1"/>
<path fill-rule="evenodd" clip-rule="evenodd" d="M57.5466 20.8684C58.6124 21.2948 59.7935 21.5079 61.0899 21.5079C61.836 21.5079 62.5288 21.4634 63.1682 21.3742C63.7988 21.2864 64.3505 21.1818 64.8251 21.0602V36.8293C65.5528 37.0066 66.3657 37.1268 67.2629 37.1888C68.1601 37.2508 68.9817 37.2818 69.7278 37.2818C71.2374 37.2818 72.6229 37.0909 73.8844 36.7092C75.146 36.3265 76.2292 35.749 77.1351 34.9768C78.0411 34.2036 78.7435 33.2269 79.2406 32.0458C79.7376 30.8647 79.9866 29.4743 79.9866 27.8756C79.9866 26.2769 79.7376 24.8875 79.2406 23.7054C78.7426 22.5243 78.0411 21.5467 77.1351 20.7745C76.2292 20.0022 75.146 19.4248 73.8844 19.043C72.6229 18.6613 71.2374 18.4704 69.7278 18.4704C68.9817 18.4704 68.1601 18.5014 67.2629 18.5634C66.3767 18.6246 65.5736 18.7426 64.8519 18.9164C64.7463 18.9303 64.6196 18.9533 64.4647 18.9897C63.6653 19.1777 62.5201 19.2416 61.3302 19.2416C60.3003 19.2416 59.3982 19.0643 58.626 18.7087C57.8528 18.3531 57.2085 17.8512 56.694 17.203C56.1785 16.5548 55.7929 15.7778 55.5352 14.8718C55.2774 13.9649 55.1486 12.9621 55.1486 11.8605C55.1486 10.7239 55.2949 9.69785 55.5885 8.7832C55.8811 7.86855 56.3025 7.09148 56.8539 6.452C57.4032 5.81349 58.0698 5.32515 58.8517 4.987C59.6327 4.64982 60.5125 4.48123 61.4891 4.48123C61.9503 4.48123 62.4086 4.52096 62.8611 4.60138C63.3146 4.68083 63.7312 4.78353 64.1139 4.90755C64.4957 5.03157 64.8377 5.15656 65.14 5.28058C65.4423 5.40557 65.6729 5.52087 65.8328 5.62746L66.5788 3.49585C66.4722 3.42512 66.2765 3.31854 65.9926 3.17611C65.7087 3.03368 65.3405 2.89222 64.8871 2.74979C64.4336 2.60736 63.9007 2.48334 63.2884 2.37675C62.676 2.27017 61.9871 2.21688 61.2236 2.21688C60.0154 2.21688 58.8789 2.43004 57.8131 2.85637C56.7473 3.28269 55.8142 3.90473 55.0149 4.72152C54.2155 5.53831 53.5809 6.54598 53.11 7.7455C52.6391 8.94501 52.4036 10.317 52.4036 11.8624C52.4036 13.4078 52.612 14.7808 53.0296 15.9793C53.4472 17.1779 54.0382 18.1865 54.8017 19.0033C55.5652 19.8201 56.4808 20.4421 57.5466 20.8684ZM75.4308 33.1378C74.2226 34.3906 72.3933 35.0165 69.9419 35.0165C69.2133 35.0165 68.6494 35.0078 68.2502 34.9903C67.851 34.9729 67.571 34.9545 67.4111 34.937V20.8151C67.571 20.7977 67.851 20.7793 68.2502 20.7619C68.6494 20.7434 69.2133 20.7347 69.9419 20.7347C72.3933 20.7347 74.2226 21.3606 75.4308 22.6135C76.6381 23.8653 77.2427 25.62 77.2427 27.8756C77.2427 30.1312 76.6381 31.8859 75.4308 33.1378Z" fill="#4591C1"/>
<path d="M58.5194 36.5241C57.9507 36.6665 57.2007 36.8177 56.2677 36.9766C55.3356 37.1365 54.2562 37.2169 53.0305 37.2169C51.9647 37.2169 51.0675 37.0609 50.3399 36.7508C49.6112 36.4398 49.0251 36.0009 48.5813 35.4322C48.1366 34.8634 47.8178 34.1929 47.6221 33.4207C47.4263 32.6475 47.3285 31.791 47.3285 30.8492V23.0688H49.807V30.3163C49.807 32.0041 50.0734 33.2114 50.6063 33.94C51.1392 34.6687 52.0355 35.032 53.297 35.032C53.5634 35.032 53.8386 35.0233 54.1235 35.0058C54.4074 34.9884 54.6738 34.9661 54.9228 34.939C55.1718 34.9118 55.3976 34.8857 55.602 34.8586C55.8065 34.8314 55.9528 34.8014 56.0419 34.7655V23.0679H58.5194V36.5241Z" fill="#4591C1"/>
<path d="M37.3663 24.0803H37.3382C36.128 24.0871 34.9876 24.5173 34.1272 25.2924C33.3786 25.9666 32.9161 26.8317 32.7931 27.7692C30.867 27.8237 29.5791 29.7435 29.5791 31.539C29.5791 33.54 31.2076 35.1803 33.2493 35.2827V35.2829H33.2537C33.3193 35.2861 33.3854 35.2877 33.4518 35.2877C33.5101 35.2877 33.5684 35.286 33.6266 35.2829H34.1417V33.5931H33.2493C32.1264 33.5175 31.2844 32.6164 31.2844 31.539C31.2844 30.9964 31.4985 30.3744 31.8502 29.9306C31.919 29.8085 32.014 29.701 32.1322 29.6167C32.1932 29.5566 32.2591 29.5024 32.3386 29.4597C32.4316 29.388 32.8773 29.1923 33.0168 29.1739C33.0385 29.169 33.0618 29.1616 33.0859 29.1539C33.1286 29.1403 33.1737 29.126 33.2164 29.1235C33.2862 29.1099 33.4664 29.1099 33.4761 29.1099C33.5365 29.0965 33.7083 29.1267 33.7939 29.1418L33.794 29.1418C33.8195 29.1463 33.8374 29.1494 33.8423 29.1497C33.8433 29.1493 33.8443 29.1488 33.8453 29.1482C33.8993 29.1593 33.9447 29.1684 33.9745 29.1745L33.9753 29.1746C33.9887 29.1773 33.9989 29.1794 34.0051 29.1807C34.0157 29.1818 34.0267 29.1825 34.0378 29.1831C34.0561 29.1843 34.0745 29.1854 34.0913 29.1884C34.1088 29.1836 34.1252 29.1749 34.1398 29.1623C34.1446 29.1584 34.1533 28.9976 34.1533 28.9762C34.1533 28.9045 34.1611 28.8338 34.1747 28.765C34.1844 28.3552 34.7124 27.1779 34.8461 27.0248C34.9663 26.865 35.2598 26.5646 35.2676 26.5588C35.8925 26.1121 36.5543 25.7895 37.3653 25.7856C38.7363 25.7856 39.8835 26.616 40.1751 27.7215C40.211 27.8232 40.3292 28.4075 40.3166 28.5635C40.335 28.6691 40.3505 28.8745 40.3369 28.9966C40.374 29.039 40.4283 29.0052 40.4689 28.9799C40.4753 28.976 40.4813 28.9722 40.4869 28.969C40.4904 28.967 40.4937 28.9651 40.4968 28.9636C40.5292 28.9487 40.5592 28.9347 40.5872 28.9215C40.8455 28.8007 40.9472 28.7532 41.4092 28.6762C41.5097 28.6621 41.6172 28.6522 41.7419 28.6497H41.7816C43.0344 28.6497 44.0537 29.7659 44.0537 31.1369C44.0537 32.3517 43.2336 33.3665 42.1543 33.5819L35.7404 33.6057L35.7472 35.2984L40.8382 35.3146C41.1284 35.3264 41.4262 35.3284 41.7264 35.3284C43.95 35.3284 45.759 33.4478 45.759 31.1359C45.759 28.8241 43.9752 26.9444 41.7816 26.9444L41.7259 26.9452C41.1151 25.2828 39.3884 24.0803 37.3663 24.0803Z" fill="black"/>
<path d="M34.0351 33.5117C34.0351 33.5117 34.0255 33.5137 34.009 33.5166L34.0351 33.5117Z" fill="black"/>
</g>
<defs>
<clipPath id="clip0">
<rect width="79.9352" height="37.4" fill="white" transform="translate(0.100098)"/>
</clipPath>
</defs>
</svg>
