<svg width="134" height="17" viewBox="0 0 134 17" fill="none" xmlns="http://www.w3.org/2000/svg">
<path d="M124.787 0C129.641 0 132.9 3.8061 132.9 8.22732C132.9 12.6487 129.596 16.5 124.741 16.5C119.887 16.5 116.628 12.6946 116.628 8.27281C116.628 3.85168 119.932 0 124.787 0ZM108.082 0.273956C111.683 0.273956 114.053 2.18765 114.053 5.35585C114.053 8.81973 111.182 10.5971 107.786 10.5971H103.912V16.2265H102.111V0.273956H108.082ZM63.6881 0.273706V1.93715H58.3318V16.2265H56.5086V1.93715H51.1533V0.273706H63.6881ZM78.5922 0.273956V1.9142H68.8609V7.36129H77.5664V9.00261H68.8609V14.5861H78.7061V16.2265H67.0603V0.273956H78.5922ZM84.1525 0.273956L89.9643 8.97958L95.776 0.273956H97.5991V16.2265H95.7981V3.30502L89.9867 11.8508H89.8959L84.0845 3.32755V16.2265H82.3296V0.273956H84.1525ZM130.775 7.49702H124.509V9.0521H130.775V7.49702ZM107.945 1.93748H103.912V8.95661H107.854C110.497 8.95661 112.23 7.54359 112.23 5.42463C112.23 3.12238 110.52 1.93748 107.945 1.93748Z" fill="#6D9AB4"/>
<path d="M41.47 0C46.3235 0 49.583 3.8061 49.583 8.22732C49.583 12.6487 46.279 16.5 41.4246 16.5C36.5701 16.5 33.3112 12.6946 33.3112 8.27281C33.3112 3.85168 36.6157 0 41.47 0ZM18.2699 0.273373V9.43491C18.2699 12.8765 20.0937 14.814 23.1468 14.814C26.0873 14.814 27.956 13.0359 27.956 9.54944V0.273373H29.7563V9.41205C29.7563 14.0617 27.0901 16.4775 23.1017 16.4775C19.1589 16.4775 16.4697 14.0617 16.4697 9.54944V0.273373H18.2699ZM13.3478 0.273706V1.93715H7.99164V16.2265H6.16843V1.93715H0.812988V0.273706H13.3478ZM42.3111 2.14365H40.7561V8.4097H42.3111V2.14365Z" fill="#59CC79"/>
</svg>
