<svg width="47" height="38" viewBox="0 0 47 38" fill="none" xmlns="http://www.w3.org/2000/svg">
<g clip-path="url(#clip0)">
<path fill-rule="evenodd" clip-rule="evenodd" d="M32.2268 24.0792C32.2268 25.0904 32.0698 26.0369 31.7604 26.9096C31.4465 27.7822 31.0078 28.5487 30.4353 29.1997C29.8627 29.8554 29.1655 30.3633 28.3344 30.7327C27.5079 31.1021 26.5845 31.2868 25.5733 31.2868C24.4697 31.2868 23.4909 31.0651 22.6459 30.6219C21.8009 30.1786 21.1361 29.5553 20.6559 28.7426V36.6428H18.8597V16.7331H20.6282V18.6954C21.1268 17.9243 21.7917 17.3426 22.6321 16.9547C23.4724 16.5669 24.3682 16.3729 25.3239 16.3729C26.4459 16.3729 27.4433 16.5761 28.3067 16.9824C29.1701 17.3887 29.895 17.9382 30.4768 18.64C31.0586 19.3418 31.4926 20.1591 31.7881 21.101C32.079 22.0383 32.2268 23.031 32.2268 24.0792ZM30.4307 24.0792C30.4307 23.3035 30.3383 22.5416 30.1536 21.7844C29.9689 21.0318 29.6642 20.3576 29.244 19.7666C28.8192 19.1802 28.2651 18.7 27.5726 18.3307C26.88 17.9613 26.0396 17.7766 25.0423 17.7766C24.5436 17.7766 24.0357 17.8689 23.5093 18.0536C22.983 18.2383 22.5028 18.4876 22.0734 18.8016C21.6393 19.1156 21.293 19.4896 21.0252 19.919C20.7574 20.353 20.6235 20.8148 20.6235 21.3134V25.8984C20.6235 26.5263 20.7574 27.0804 21.0252 27.5698C21.293 28.0593 21.644 28.4748 22.0734 28.8119C22.5074 29.1536 23.0014 29.4168 23.5648 29.5968C24.1281 29.7815 24.7006 29.8739 25.2916 29.8739C26.1366 29.8739 26.8846 29.7215 27.5264 29.4168C28.1728 29.112 28.7084 28.6965 29.1424 28.1747C29.5765 27.6529 29.8997 27.0342 30.1074 26.3232C30.3291 25.6213 30.4307 24.8733 30.4307 24.0792Z" fill="#4EC1F0"/>
<path fill-rule="evenodd" clip-rule="evenodd" d="M13.222 33.5815C13.4621 32.8474 13.5821 32.0255 13.5821 31.1251H13.5867V16.7377H11.7906V18.7C11.3104 17.9243 10.6501 17.3471 9.8144 16.9593C8.97405 16.5714 8.0783 16.3775 7.11791 16.3775C5.99591 16.3775 5.00319 16.5807 4.13514 16.987C3.26709 17.3933 2.5468 17.9474 1.96502 18.6446C1.38786 19.3464 0.949215 20.1683 0.653709 21.1056C0.358202 22.0429 0.210449 23.0403 0.210449 24.0884C0.210449 25.0996 0.367437 26.0461 0.681412 26.9188C0.995387 27.7914 1.43403 28.5533 2.00657 29.2089C2.57912 29.8646 3.27171 30.3725 4.09359 30.7419C4.91084 31.1113 5.83892 31.296 6.86857 31.296C7.9721 31.296 8.94635 31.0743 9.79593 30.6311C10.6409 30.1878 11.315 29.5645 11.8137 28.7518V31.2359C11.8137 32.7088 11.4258 33.8539 10.6547 34.6758C9.87904 35.4931 8.73857 35.904 7.22872 35.904C6.69312 35.904 6.18983 35.8394 5.70964 35.7101C5.22944 35.5808 4.80926 35.3776 4.43988 35.1006C4.07512 34.8282 3.77038 34.4773 3.53028 34.0525C3.29018 33.6277 3.15166 33.1336 3.11472 32.5611H1.3463C1.40171 33.4107 1.60025 34.1217 1.94193 34.7035C2.28361 35.2853 2.72225 35.7516 3.26709 36.1118C3.81193 36.4673 4.42603 36.7259 5.11862 36.8829C5.8066 37.0399 6.52689 37.1184 7.28413 37.1184C8.38766 37.1184 9.34344 36.9752 10.1422 36.6889C10.9456 36.4027 11.5967 36.001 12.1046 35.4746C12.6079 34.9482 12.9819 34.3203 13.222 33.5815ZM11.4166 19.9236C11.6844 20.3576 11.8183 20.8193 11.8183 21.318L11.7952 25.9122C11.7952 26.5402 11.6613 27.0988 11.3935 27.5837C11.1257 28.0731 10.784 28.484 10.3592 28.8257C9.93445 29.1628 9.44502 29.426 8.88171 29.6106C8.3184 29.7953 7.74586 29.8877 7.15484 29.8877C6.2868 29.8877 5.5388 29.7353 4.90161 29.4306C4.26443 29.1258 3.73344 28.7149 3.29941 28.1885C2.87 27.6622 2.54679 27.0434 2.3344 26.337C2.122 25.6259 2.01581 24.8779 2.01581 24.0838C2.01581 23.3081 2.10815 22.5462 2.29284 21.789C2.47292 21.0317 2.77766 20.3622 3.20245 19.7712C3.62724 19.1848 4.18131 18.7046 4.87391 18.3352C5.56188 17.9659 6.40685 17.7812 7.39956 17.7812C7.89823 17.7812 8.40613 17.8735 8.9325 18.0582C9.45887 18.2429 9.93445 18.4922 10.3685 18.8062C10.7979 19.1202 11.1488 19.4896 11.4166 19.9236Z" fill="#4EC1F0"/>
<path d="M15.2397 16.7331V30.9589H17.0359V16.7331H15.2397Z" fill="#4EC1F0"/>
<path fill-rule="evenodd" clip-rule="evenodd" d="M46.1893 26.6464C46.4756 25.746 46.6188 24.8087 46.6188 23.8298C46.6188 22.8556 46.4756 21.9229 46.1893 21.0271C45.9031 20.136 45.4829 19.3465 44.9196 18.6539C44.3563 17.9613 43.6545 17.4118 42.8049 16.9963C41.9599 16.5807 40.981 16.3729 39.8775 16.3729C38.7555 16.3729 37.772 16.5807 36.9225 16.9963C36.0729 17.4118 35.3711 17.9613 34.8077 18.6539C34.2444 19.3418 33.8243 20.136 33.538 21.0271C33.2517 21.9183 33.1086 22.8556 33.1086 23.8298C33.1086 24.8041 33.2517 25.746 33.538 26.6464C33.8243 27.5514 34.2444 28.3455 34.8077 29.0381C35.3711 29.7307 36.0729 30.2756 36.9225 30.6819C37.7674 31.0882 38.7463 31.2914 39.8498 31.2914C40.9718 31.2914 41.9507 31.0882 42.791 30.6819C43.6314 30.2756 44.3332 29.7307 44.9057 29.0381C45.4737 28.3455 45.9031 27.5514 46.1893 26.6464ZM44.5179 21.6043C44.721 22.3338 44.8226 23.0772 44.8226 23.8298C44.8226 24.6055 44.7257 25.3582 44.5179 26.0831C44.3147 26.8126 44.0146 27.4544 43.6083 28.0177C43.2066 28.581 42.6894 29.0289 42.0661 29.3706C41.4428 29.7123 40.7179 29.8831 39.8914 29.8831C39.0464 29.8831 38.3123 29.7123 37.6889 29.3706C37.0656 29.0289 36.5438 28.5764 36.1329 28.0039C35.7173 27.4313 35.4126 26.7895 35.2094 26.0692C35.0063 25.3489 34.9047 24.6055 34.9047 23.8298C34.9047 23.0726 35.0063 22.3338 35.2094 21.6043C35.4126 20.8748 35.722 20.233 36.1329 19.6697C36.5438 19.1064 37.0656 18.6539 37.6889 18.3029C38.3123 17.952 39.0464 17.7766 39.8914 17.7766C40.7179 17.7766 41.4428 17.952 42.0661 18.3029C42.6894 18.6539 43.2066 19.1064 43.6083 19.6697C44.0146 20.233 44.3147 20.8748 44.5179 21.6043Z" fill="#4EC1F0"/>
<path d="M17.3219 12.9284C17.3219 13.5933 16.7863 14.1289 16.1214 14.1289C15.4565 14.1289 14.9209 13.5933 14.9209 12.9284C14.9209 12.2635 15.4611 11.7279 16.1214 11.7279C16.7817 11.7279 17.3219 12.2635 17.3219 12.9284Z" fill="#40BFEF"/>
<path opacity="0.4" d="M17.2667 1.30206C17.2667 1.96695 16.7265 2.50255 16.0662 2.50255C15.4013 2.50255 14.8657 1.96233 14.8657 1.30206C14.8657 0.637168 15.4013 0.101562 16.0662 0.101562C16.7265 0.101562 17.2667 0.641785 17.2667 1.30206Z" fill="#40BFEF"/>
<path opacity="0.7" d="M23.1769 7.10137C23.1769 7.76626 22.6366 8.30187 21.9764 8.30187C21.3115 8.30187 20.7759 7.76165 20.7759 7.10137C20.7759 6.4411 21.3161 5.90088 21.9764 5.90088C22.6366 5.90088 23.1769 6.43648 23.1769 7.10137Z" fill="#40BFEF"/>
<path opacity="0.15" d="M11.5042 7.09676C11.5042 7.76165 10.964 8.29726 10.2991 8.29726C9.63424 8.29726 9.09863 7.76165 9.09863 7.09676C9.09863 6.43187 9.63886 5.89627 10.2991 5.89627C10.964 5.89165 11.5042 6.43187 11.5042 7.09676Z" fill="#40BFEF"/>
<path opacity="0.1" d="M12.2984 10.0287C12.2984 10.6936 11.7582 11.2292 11.098 11.2292C10.4331 11.2292 9.89746 10.689 9.89746 10.0287C9.89746 9.36847 10.4377 8.82825 11.098 8.82825C11.7582 8.82825 12.2984 9.36385 12.2984 10.0287Z" fill="#40BFEF"/>
<path opacity="0.2" d="M12.2892 4.21099C12.2892 4.87588 11.7489 5.41149 11.0887 5.41149C10.4238 5.41149 9.88818 4.87588 9.88818 4.21099C9.88818 3.5461 10.4284 3.0105 11.0887 3.0105C11.7536 3.0105 12.2892 3.5461 12.2892 4.21099Z" fill="#40BFEF"/>
<path opacity="0.8" d="M22.3502 10.0057C22.3502 10.6706 21.8146 11.2062 21.1497 11.2062C20.4848 11.2062 19.9492 10.6659 19.9492 10.0057C19.9492 9.3454 20.4848 8.80518 21.1497 8.80518C21.8146 8.80518 22.3502 9.3454 22.3502 10.0057Z" fill="#40BFEF"/>
<path opacity="0.6" d="M22.3546 4.19254C22.3546 4.85743 21.8144 5.39303 21.1541 5.39303C20.4892 5.39303 19.9536 4.85743 19.9536 4.19254C19.9536 3.52765 20.4938 2.98743 21.1541 2.98743C21.8144 2.98743 22.3546 3.52765 22.3546 4.19254Z" fill="#40BFEF"/>
<path opacity="0.05" d="M14.4083 12.1389C14.4083 12.8038 13.8681 13.3394 13.2078 13.3394C12.5429 13.3394 12.0073 12.7991 12.0073 12.1389C12.0073 11.4786 12.5475 10.9384 13.2078 10.9384C13.8681 10.9338 14.4083 11.474 14.4083 12.1389Z" fill="#40BFEF"/>
<path opacity="0.3" d="M14.4178 2.08233C14.4178 2.74722 13.8776 3.28282 13.2127 3.28282C12.5478 3.28282 12.0122 2.7426 12.0122 2.08233C12.0122 1.41744 12.5524 0.881836 13.2127 0.881836C13.8822 0.881836 14.4178 1.41744 14.4178 2.08233Z" fill="#40BFEF"/>
<path opacity="0.9" d="M20.2262 12.1388C20.2262 12.8037 19.6906 13.3393 19.0257 13.3393C18.3608 13.3393 17.8252 12.7991 17.8252 12.1388C17.8252 11.474 18.3608 10.9384 19.0257 10.9384C19.6906 10.9384 20.2262 11.474 20.2262 12.1388Z" fill="#40BFEF"/>
<path opacity="0.5" d="M20.2355 2.07781C20.2355 2.7427 19.6999 3.27831 19.035 3.27831C18.3701 3.27831 17.8345 2.73808 17.8345 2.07781C17.8345 1.41292 18.3701 0.877319 19.035 0.877319C19.6999 0.877319 20.2355 1.41292 20.2355 2.07781Z" fill="#40BFEF"/>
</g>
<defs>
<clipPath id="clip0">
<rect width="46.6346" height="37.4" fill="white" transform="translate(0.0351562)"/>
</clipPath>
</defs>
</svg>
